HIERARCHY
ROOT Hips
{
	OFFSET 0.000000 35.082581 0.000000
	CHANNELS 6 Xposition Yposition Zposition Xrotation Yrotation Zrotation 
	JOINT Spine
	{
		OFFSET 0.000000 6.876099 0.125700
		CHANNELS 3 Xrotation Yrotation Zrotation
		JOINT Spine1
		{
			OFFSET 0.000000 5.730043 0.104720
			CHANNELS 3 Xrotation Yrotation Zrotation
			JOINT Spine1_split
			{
				OFFSET 0.000000 5.730043 0.104720
				CHANNELS 3 Xrotation Yrotation Zrotation
				JOINT Spine2
				{
					OFFSET 0.000000 5.730043 0.104720
					CHANNELS 3 Xrotation Yrotation Zrotation
					JOINT Neck
					{
						OFFSET 0.000000 10.314075 0.188496
						CHANNELS 3 Xrotation Yrotation Zrotation
						JOINT Head
						{
							OFFSET 0.000000 7.643700 -2.377400
							CHANNELS 3 Xrotation Yrotation Zrotation
							JOINT HeadTop_End
							{
								OFFSET 0.000000 43.788605 -13.619600
								CHANNELS 3 Xrotation Yrotation Zrotation
								End Site
								{
									OFFSET 0.000000 0.000000 0.000000
								}
							}
						}
					}
					JOINT LeftShoulder
					{
						OFFSET 2.196100 4.412489 0.087492
						CHANNELS 3 Xrotation Yrotation Zrotation
						JOINT LeftShoulder_split
						{
							OFFSET 2.196100 4.412489 0.087492
							CHANNELS 3 Xrotation Yrotation Zrotation
							JOINT LeftArm
							{
								OFFSET 8.771219 -2.981674 -0.026999
								CHANNELS 3 Xrotation Yrotation Zrotation
								JOINT LeftForeArm
								{
									OFFSET 8.512804 0.000000 -0.000000
									CHANNELS 3 Xrotation Yrotation Zrotation
									JOINT LeftHand
									{
										OFFSET 18.484802 0.000000 -0.000000
										CHANNELS 3 Xrotation Yrotation Zrotation
										JOINT LeftHandThumb1
										{
											OFFSET 2.499420 -1.158070 2.653252
											CHANNELS 3 Xrotation Yrotation Zrotation
											JOINT LeftHandThumb2
											{
												OFFSET 2.370079 -1.368366 1.368366
												CHANNELS 3 Xrotation Yrotation Zrotation
												JOINT LeftHandThumb3
												{
													OFFSET 2.676727 -1.545410 1.545409
													CHANNELS 3 Xrotation Yrotation Zrotation
													JOINT LeftHandThumb4
													{
														OFFSET 1.692226 -0.977005 0.977007
														CHANNELS 3 Xrotation Yrotation Zrotation
														End Site
														{
															OFFSET 0.000000 0.000000 0.000000
														}
													}
												}
											}
										}
										JOINT LeftHandIndex1
										{
											OFFSET 7.924831 -0.457527 2.345128
											CHANNELS 3 Xrotation Yrotation Zrotation
											JOINT LeftHandIndex2
											{
												OFFSET 3.643303 0.000000 0.000000
												CHANNELS 3 Xrotation Yrotation Zrotation
												JOINT LeftHandIndex3
												{
													OFFSET 3.810799 0.000000 0.000000
													CHANNELS 3 Xrotation Yrotation Zrotation
													JOINT LeftHandIndex4
													{
														OFFSET 2.403702 0.000000 0.000000
														CHANNELS 3 Xrotation Yrotation Zrotation
														End Site
														{
															OFFSET 0.000000 0.000000 0.000000
														}
													}
												}
											}
										}
										JOINT LeftHandMiddle1
										{
											OFFSET 8.563995 0.000000 -0.000000
											CHANNELS 3 Xrotation Yrotation Zrotation
											JOINT LeftHandMiddle2
											{
												OFFSET 3.861618 0.000000 0.000000
												CHANNELS 3 Xrotation Yrotation Zrotation
												JOINT LeftHandMiddle3
												{
													OFFSET 3.701603 0.000000 0.000000
													CHANNELS 3 Xrotation Yrotation Zrotation
													JOINT LeftHandMiddle4
													{
														OFFSET 2.322544 0.000000 0.000000
														CHANNELS 3 Xrotation Yrotation Zrotation
														End Site
														{
															OFFSET 0.000000 0.000000 0.000000
														}
													}
												}
											}
										}
										JOINT LeftHandRing1
										{
											OFFSET 8.426460 -0.424637 -3.286992
											CHANNELS 3 Xrotation Yrotation Zrotation
											JOINT LeftHandRing2
											{
												OFFSET 3.126408 0.000000 0.000000
												CHANNELS 3 Xrotation Yrotation Zrotation
												JOINT LeftHandRing3
												{
													OFFSET 3.085026 0.000000 0.000000
													CHANNELS 3 Xrotation Yrotation Zrotation
													JOINT LeftHandRing4
													{
														OFFSET 1.644005 0.000000 0.000000
														CHANNELS 3 Xrotation Yrotation Zrotation
														End Site
														{
															OFFSET 0.000000 0.000000 0.000000
														}
													}
												}
											}
										}
									}
								}
							}
						}
					}
					JOINT RightShoulder
					{
						OFFSET -2.196100 4.412496 0.070690
						CHANNELS 3 Xrotation Yrotation Zrotation
						JOINT RightShoulder_split
						{
							OFFSET -2.196100 4.412496 0.070690
							CHANNELS 3 Xrotation Yrotation Zrotation
							JOINT RightArm
							{
								OFFSET -8.771282 -2.981682 -0.094208
								CHANNELS 3 Xrotation Yrotation Zrotation
								JOINT RightForeArm
								{
									OFFSET -8.494598 0.000000 0.000000
									CHANNELS 3 Xrotation Yrotation Zrotation
									JOINT RightHand
									{
										OFFSET -18.483803 0.000000 0.000001
										CHANNELS 3 Xrotation Yrotation Zrotation
										JOINT RightHandThumb1
										{
											OFFSET -2.527351 -1.008072 2.575253
											CHANNELS 3 Xrotation Yrotation Zrotation
											JOINT RightHandThumb2
											{
												OFFSET -2.321518 -1.340328 1.340329
												CHANNELS 3 Xrotation Yrotation Zrotation
												JOINT RightHandThumb3
												{
													OFFSET -2.657753 -1.534454 1.534455
													CHANNELS 3 Xrotation Yrotation Zrotation
													JOINT RightHandThumb4
													{
														OFFSET -1.807510 -1.043568 1.043567
														CHANNELS 3 Xrotation Yrotation Zrotation
														End Site
														{
															OFFSET 0.000000 0.000000 0.000000
														}
													}
												}
											}
										}
										JOINT RightHandIndex1
										{
											OFFSET -8.811420 0.015533 2.887987
											CHANNELS 3 Xrotation Yrotation Zrotation
											JOINT RightHandIndex2
											{
												OFFSET -3.537502 0.000000 0.000000
												CHANNELS 3 Xrotation Yrotation Zrotation
												JOINT RightHandIndex3
												{
													OFFSET -3.356201 0.000000 0.000000
													CHANNELS 3 Xrotation Yrotation Zrotation
													JOINT RightHandIndex4
													{
														OFFSET -1.933098 0.000000 0.000000
														CHANNELS 3 Xrotation Yrotation Zrotation
														End Site
														{
															OFFSET 0.000000 0.000000 0.000000
														}
													}
												}
											}
										}
										JOINT RightHandMiddle1
										{
											OFFSET -8.178135 0.000000 0.000000
											CHANNELS 3 Xrotation Yrotation Zrotation
											JOINT RightHandMiddle2
											{
												OFFSET -3.901302 0.000000 0.000000
												CHANNELS 3 Xrotation Yrotation Zrotation
												JOINT RightHandMiddle3
												{
													OFFSET -3.909599 0.000000 0.000000
													CHANNELS 3 Xrotation Yrotation Zrotation
													JOINT RightHandMiddle4
													{
														OFFSET -2.376003 0.000000 0.000000
														CHANNELS 3 Xrotation Yrotation Zrotation
														End Site
														{
															OFFSET 0.000000 0.000000 0.000000
														}
													}
												}
											}
										}
										JOINT RightHandRing1
										{
											OFFSET -7.559013 0.014137 -2.865403
											CHANNELS 3 Xrotation Yrotation Zrotation
											JOINT RightHandRing2
											{
												OFFSET -3.449306 0.000000 0.000000
												CHANNELS 3 Xrotation Yrotation Zrotation
												JOINT RightHandRing3
												{
													OFFSET -3.362106 0.000000 0.000000
													CHANNELS 3 Xrotation Yrotation Zrotation
													JOINT RightHandRing4
													{
														OFFSET -2.076401 0.000000 0.000000
														CHANNELS 3 Xrotation Yrotation Zrotation
														End Site
														{
															OFFSET 0.000000 0.000000 0.000000
														}
													}
												}
											}
										}
									}
								}
							}
						}
					}
				}
			}
		}
	}
	JOINT LeftUpLeg
	{
		OFFSET 10.205400 -3.823500 0.155100
		CHANNELS 3 Xrotation Yrotation Zrotation
		JOINT LeftLeg
		{
			OFFSET 0.708757 -12.982077 0.567790
			CHANNELS 3 Xrotation Yrotation Zrotation
			JOINT LeftFoot
			{
				OFFSET -0.708756 -10.717838 -2.184338
				CHANNELS 3 Xrotation Yrotation Zrotation
				JOINT LeftToeBase
				{
					OFFSET 0.108149 -7.191104 7.560241
					CHANNELS 3 Xrotation Yrotation Zrotation
					JOINT LeftToe_End
					{
						OFFSET 0.070230 0.081724 4.490308
						CHANNELS 3 Xrotation Yrotation Zrotation
						End Site
						{
							OFFSET 0.000000 0.000000 0.000000
						}
					}
				}
			}
		}
	}
	JOINT RightUpLeg
	{
		OFFSET -10.205400 -3.823500 0.005500
		CHANNELS 3 Xrotation Yrotation Zrotation
		JOINT RightLeg
		{
			OFFSET -0.708756 -12.982134 0.610632
			CHANNELS 3 Xrotation Yrotation Zrotation
			JOINT RightFoot
			{
				OFFSET 0.708754 -10.717769 -1.945823
				CHANNELS 3 Xrotation Yrotation Zrotation
				JOINT RightToeBase
				{
					OFFSET -0.108140 -7.191069 7.372968
					CHANNELS 3 Xrotation Yrotation Zrotation
					JOINT RightToe_End
					{
						OFFSET -0.070227 0.081735 4.479403
						CHANNELS 3 Xrotation Yrotation Zrotation
						End Site
						{
							OFFSET 0.000000 0.000000 0.000000
						}
					}
				}
			}
		}
	}
}
MOTION
Frames: 4
Frame Time: 0.016667
4.038023 22.360138 22.212315 -14.574398 -41.950175 -8.828132 22.956437 5.793330 -9.583894 0.646536 0.929547 0.134781 0.000000 0.000000 0.000000 0.636327 0.960704 0.115371 4.340621 13.104365 0.961784 1.464761 20.711691 -6.151119 0.000001 -0.000000 0.000000 0.727749 3.026995 -7.324660 0.000000 0.000000 0.000000 -54.688601 2.382176 -44.353445 -0.000014 -113.998555 -0.000029 -8.744117 -11.473569 -10.700556 -6.141213 -11.690802 -6.761687 9.914113 42.595505 3.409846 -0.422812 8.108071 27.509108 0.000005 0.000001 -0.000000 0.255313 3.378228 -45.814337 5.654072 5.847757 -88.067455 2.162132 4.544821 -50.866365 0.000000 -0.000002 0.000001 -0.461472 3.841598 -39.722686 6.450750 5.820364 -95.892871 2.182899 4.561570 -51.127743 0.000002 0.000001 0.000001 0.469726 4.966843 -39.799444 8.181038 5.368624 -113.503018 3.200483 5.218126 -63.022989 0.000001 -0.000000 0.000001 2.812990 13.874460 -5.932550 0.000000 0.000000 0.000000 -45.155839 21.957426 84.432975 -0.000058 114.502548 0.000007 1.729102 20.759646 7.523814 -7.341088 13.749657 7.412327 9.855760 -44.489096 -3.903241 -0.115762 -14.513086 -28.973864 -0.000001 -0.000002 0.000003 -0.124365 -2.384790 45.108868 4.500589 -4.654540 88.071164 1.723238 -3.618365 50.920105 -0.000000 0.000001 0.000000 -0.761616 -2.932909 39.031055 5.133904 -4.632765 95.881676 1.739755 -3.631691 51.181357 -0.000001 -0.000001 -0.000000 0.154761 -4.068817 39.122678 6.509724 -4.273582 113.462857 2.549571 -4.153923 63.067324 0.000001 0.000001 0.000001 -50.938151 -13.196996 40.062929 56.151487 -13.101769 5.254411 4.744954 -10.135352 -37.571515 0.796540 0.000006 0.000004 -0.000000 0.000000 0.000000 -9.511057 -0.890261 -60.541383 82.532106 29.782787 -6.843664 -28.682263 -17.694612 25.869159 -16.052297 -0.282510 4.299585 -0.000000 0.000000 -0.000001 
3.928108 22.446377 21.649479 -13.799689 -41.937894 -7.821418 21.181313 6.533583 -8.538033 1.010367 1.004092 -0.234458 0.000000 0.000000 0.000000 1.004578 1.022899 -0.248460 4.766928 13.065352 0.442459 1.896273 20.295897 -6.198562 0.000002 0.000000 0.000000 0.722453 3.377166 -7.482085 0.000000 0.000000 0.000000 -53.816095 2.392650 -44.340608 -0.000017 -114.488539 0.000000 -8.831651 -10.561570 -10.712645 -6.141213 -11.690802 -6.761692 9.914105 42.595505 3.409846 -0.422812 8.108069 27.509120 -0.000003 -0.000003 0.000001 0.255315 3.378226 -45.814337 5.654075 5.847757 -88.067455 2.162132 4.544819 -50.866362 0.000000 0.000001 -0.000001 -0.461469 3.841596 -39.722683 6.450750 5.820365 -95.892871 2.182902 4.561570 -51.127743 0.000001 -0.000000 -0.000000 0.469728 4.966840 -39.799441 8.181038 5.368626 -113.503025 3.200483 5.218126 -63.022989 -0.000000 0.000000 0.000001 2.844856 14.234608 -6.010212 0.000000 0.000000 0.000000 -45.524030 21.500556 84.730225 -0.000044 114.409726 0.000003 1.034115 19.977801 8.075888 -7.341089 13.749662 7.412319 9.855754 -44.489093 -3.903247 -0.115766 -14.513086 -28.973867 0.000001 -0.000003 0.000002 -0.124363 -2.384794 45.108868 4.500587 -4.654541 88.071164 1.723241 -3.618365 50.920102 0.000000 -0.000000 -0.000000 -0.761616 -2.932912 39.031055 5.133898 -4.632765 95.881670 1.739758 -3.631695 51.181357 -0.000001 -0.000000 -0.000001 0.154764 -4.068817 39.122682 6.509724 -4.273575 113.462870 2.549567 -4.153926 63.067317 0.000001 0.000001 -0.000001 -50.328836 -11.993981 40.049374 51.103059 -12.759526 5.334845 7.858445 -11.024873 -38.544325 0.756289 -0.000012 -0.000020 0.000000 0.000004 -0.000000 -7.740878 -3.078488 -59.289225 80.222027 30.189457 -6.782820 -33.694034 -21.027828 26.133813 -14.293037 -0.044438 1.722442 -0.000000 -0.000000 -0.000001 
3.810140 22.519073 21.090219 -12.742409 -41.668399 -6.691075 19.339170 7.140023 -7.422406 1.352512 1.057877 -0.608382 0.000000 0.000000 0.000000 1.352139 1.065428 -0.615882 5.139179 13.011476 -0.052973 2.198361 19.765678 -6.130645 -0.000000 0.000000 -0.000000 0.720605 3.654618 -7.622948 0.000000 0.000000 0.000000 -53.440821 2.217192 -44.400287 0.000029 -114.716879 0.000050 -8.688882 -9.634168 -11.046182 -6.141209 -11.690804 -6.761690 9.914121 42.595505 3.409839 -0.422808 8.108072 27.509111 0.000003 0.000001 0.000001 0.255315 3.378224 -45.814337 5.654074 5.847756 -88.067455 2.162130 4.544818 -50.866365 0.000000 -0.000002 0.000000 -0.461471 3.841595 -39.722686 6.450751 5.820364 -95.892871 2.182901 4.561570 -51.127746 -0.000000 0.000002 -0.000000 0.469726 4.966844 -39.799437 8.181039 5.368625 -113.503018 3.200484 5.218128 -63.022989 -0.000000 -0.000002 0.000001 2.810639 14.537257 -6.138990 0.000000 0.000000 0.000000 -46.080182 20.947471 84.878809 -0.000048 114.352243 0.000009 0.145098 19.111354 8.651118 -7.341094 13.749663 7.412315 9.855760 -44.489096 -3.903249 -0.115765 -14.513086 -28.973864 0.000001 0.000001 0.000002 -0.124365 -2.384792 45.108871 4.500588 -4.654541 88.071164 1.723235 -3.618363 50.920105 0.000001 -0.000001 0.000002 -0.761617 -2.932909 39.031055 5.133898 -4.632763 95.881670 1.739759 -3.631691 51.181357 -0.000002 0.000001 0.000005 0.154763 -4.068814 39.122678 6.509727 -4.273576 113.462863 2.549569 -4.153925 63.067317 -0.000001 0.000000 -0.000000 -50.177554 -10.967211 39.740657 46.238427 -12.321195 5.372480 10.945440 -12.209659 -39.213472 0.664710 0.000002 0.000005 0.000000 -0.000001 -0.000000 -5.817305 -5.590836 -58.032661 76.795580 29.465897 -5.537733 -38.738217 -23.282452 26.089726 -12.268032 0.000094 0.000009 -0.000000 0.000001 -0.000001 
3.688440 22.669857 20.498888 -11.503870 -41.177588 -5.471520 17.606095 7.538433 -6.366730 1.638935 1.089202 -0.969848 0.000000 0.000000 0.000000 1.644421 1.086878 -0.970828 5.394267 12.949661 -0.475067 2.388297 19.167879 -5.962651 -0.000000 -0.000000 0.000000 0.718278 3.843467 -7.721480 0.000000 0.000000 0.000000 -53.487372 1.962362 -44.508774 -0.000009 -114.724502 -0.000003 -8.343840 -8.919364 -11.544601 -6.141207 -11.690807 -6.761687 9.914113 42.595508 3.409844 -0.422814 8.108071 27.509111 0.000001 -0.000005 0.000003 0.255313 3.378226 -45.814337 5.654074 5.847758 -88.067448 2.162130 4.544818 -50.866362 -0.000001 -0.000001 -0.000004 -0.461472 3.841598 -39.722683 6.450751 5.820365 -95.892871 2.182901 4.561573 -51.127743 0.000000 0.000001 -0.000003 0.469725 4.966844 -39.799441 8.181039 5.368626 -113.503018 3.200483 5.218126 -63.022989 0.000000 -0.000001 -0.000002 2.691455 14.753634 -6.327789 0.000000 0.000000 0.000000 -46.723056 20.456843 84.821599 -0.000029 114.332251 0.000003 -0.808688 18.412568 9.158082 -7.341092 13.749663 7.412320 9.855761 -44.489100 -3.903246 -0.115758 -14.513090 -28.973864 -0.000003 0.000000 0.000005 -0.124364 -2.384790 45.108868 4.500588 -4.654542 88.071164 1.723233 -3.618361 50.920105 0.000001 -0.000000 -0.000003 -0.761616 -2.932911 39.031058 5.133899 -4.632767 95.881670 1.739759 -3.631695 51.181357 -0.000002 0.000002 -0.000001 0.154763 -4.068817 39.122678 6.509727 -4.273578 113.462857 2.549567 -4.153923 63.067324 0.000000 -0.000000 -0.000004 -50.291229 -10.170128 39.133490 42.271293 -11.598374 5.248481 12.795016 -13.100160 -39.499288 2.850717 -0.000029 0.000001 -0.000000 0.000002 -0.000000 -4.521131 -7.663853 -56.463941 73.757041 27.899608 -4.016940 -42.927435 -24.399375 25.571506 -10.878602 0.000090 0.000005 -0.000000 -0.000000 0.000001 
